<svg id="Layer_1" data-name="Layer 1" xmlns="http://www.w3.org/2000/svg" viewBox="0 0 661 228"><defs><style>.cls-1{fill:none;stroke:#fff;stroke-miterlimit:10;}.cls-2{fill:#fff;}</style></defs><title>Artboard 1</title><path class="cls-1" d="M67.5,203.5l-27-34.92c17.93-1.91,53.81-7.63,90-27.94C170.66,118.1,189.21,90,196.5,77"/><line class="cls-1" x1="67.5" y1="129" x2="40.5" y2="168.58"/><path class="cls-2" d="M148.63,39.87a9.53,9.53,0,0,1,2.91-1.08,15.91,15.91,0,0,1,3.18-.33,5.7,5.7,0,0,1,2.51.48,4,4,0,0,1,1.53,1.24,4.39,4.39,0,0,1,.75,1.74,10,10,0,0,1,.19,2q0,1.14-.06,2.43t-.09,2.58a21.57,21.57,0,0,0,.18,2.85h2v2h-4l-.27-2.25h-.15a7.66,7.66,0,0,1-.54.69,5,5,0,0,1-.95.82,6.15,6.15,0,0,1-1.43.71,5.89,5.89,0,0,1-2,.3,5.12,5.12,0,0,1-3.52-1.14,3.92,3.92,0,0,1-1.3-3.12,4.53,4.53,0,0,1,.68-2.55,4.27,4.27,0,0,1,1.94-1.56,8.9,8.9,0,0,1,3.05-.63,20.56,20.56,0,0,1,4,.24,10.73,10.73,0,0,0,0-2.3,3,3,0,0,0-.49-1.45,2,2,0,0,0-1-.77,5.36,5.36,0,0,0-1.67-.22,8.86,8.86,0,0,0-2.59.37c-.82.25-1.55.51-2.2.77ZM153.07,52a4.41,4.41,0,0,0,1.56-.27,4.76,4.76,0,0,0,1.26-.69,4.59,4.59,0,0,0,.9-.92,4.4,4.4,0,0,0,.54-.94V47a17,17,0,0,0-2.88-.27,8.08,8.08,0,0,0-2.28.28,3.19,3.19,0,0,0-1.5.89,2.24,2.24,0,0,0-.54,1.56,2.46,2.46,0,0,0,.68,1.72A3,3,0,0,0,153.07,52Z"/><path class="cls-2" d="M166.18,44c0-.18,0-.42,0-.71s0-.59,0-.9,0-.61-.07-.91-.07-.56-.11-.78h-2V38.7h4l.27,2.43h.15a5.13,5.13,0,0,1,.8-1,6.2,6.2,0,0,1,1.15-.9,6.11,6.11,0,0,1,1.47-.64,6,6,0,0,1,1.71-.24,9.08,9.08,0,0,1,2.45.3,3.72,3.72,0,0,1,1.77,1.06,4.93,4.93,0,0,1,1.06,2.07,12.78,12.78,0,0,1,.36,3.32V53.7h-2.37V45.55a7,7,0,0,0-.81-3.74A3.21,3.21,0,0,0,173,40.56a3.82,3.82,0,0,0-1.51.31,5.36,5.36,0,0,0-1.33.82,6,6,0,0,0-1,1.19,4.83,4.83,0,0,0-.66,1.42v9.4h-2.31Z"/><path class="cls-2" d="M191.83,32.7h4.89V48.57c0,.18,0,.4,0,.67s.05.56.08.86.06.59.1.88.08.55.12.77h2v2h-4l-.3-2.31h-.12a5.27,5.27,0,0,1-2,1.9,5.83,5.83,0,0,1-3,.77,6.15,6.15,0,0,1-5-1.91q-1.6-1.9-1.6-5.92a9.61,9.61,0,0,1,.54-3.35,6.45,6.45,0,0,1,1.54-2.43A6.65,6.65,0,0,1,187.56,39a9.15,9.15,0,0,1,3.14-.51c.42,0,.79,0,1.12,0s.64,0,.91.09a6.29,6.29,0,0,1,.8.16l.82.23V34.71h-2.52ZM190,52.05a4.15,4.15,0,0,0,2.88-.95,5.11,5.11,0,0,0,1.43-2.83v-7a4.62,4.62,0,0,0-1.48-.66,9.07,9.07,0,0,0-2.17-.21,5,5,0,0,0-3.76,1.39,6.06,6.06,0,0,0-1.38,4.4,11.79,11.79,0,0,0,.22,2.29,5.21,5.21,0,0,0,.75,1.85,3.68,3.68,0,0,0,1.39,1.23A4.58,4.58,0,0,0,190,52.05Z"/><path class="cls-2" d="M220.54,53.7v-2h5.22v-11h-5.22v-2h7.59v13h5.1v2Zm4.38-19.26a2,2,0,0,1,.54-1.4,1.79,1.79,0,0,1,1.38-.58,1.94,1.94,0,0,1,1.45.58,1.88,1.88,0,0,1,.59,1.4,1.7,1.7,0,0,1-.59,1.32,2,2,0,0,1-1.45.54,1.87,1.87,0,0,1-1.38-.54A1.8,1.8,0,0,1,224.92,34.44Z"/><path class="cls-2" d="M254.11,32.7H259V45.12h1.65l5.91-6.42h2.82l-6.63,7.11,5.46,5.88h1.95v2H267l-6.42-6.78H259V53.7h-2.31v-19h-2.55Z"/><path class="cls-2" d="M274.18,44c0-.18,0-.42,0-.71s0-.59,0-.9-.05-.61-.08-.91-.06-.56-.1-.78h-2V38.7h4l.27,2.43h.15a5.06,5.06,0,0,1,.79-1,6.27,6.27,0,0,1,1.16-.9,6.11,6.11,0,0,1,1.47-.64,6,6,0,0,1,1.71-.24,9,9,0,0,1,2.44.3,3.72,3.72,0,0,1,1.77,1.06,4.94,4.94,0,0,1,1.07,2.07,12.78,12.78,0,0,1,.36,3.32V53.7h-2.37V45.55a7,7,0,0,0-.81-3.74A3.22,3.22,0,0,0,281,40.56a3.78,3.78,0,0,0-1.51.31,5.18,5.18,0,0,0-1.33.82,5.66,5.66,0,0,0-1,1.19,4.83,4.83,0,0,0-.66,1.42v9.4h-2.31Z"/><path class="cls-2" d="M291.1,46.2A8.32,8.32,0,0,1,293,40.45a6.86,6.86,0,0,1,5.4-2.11,7.86,7.86,0,0,1,3.25.61,6.42,6.42,0,0,1,2.27,1.67,6.78,6.78,0,0,1,1.33,2.49,10.63,10.63,0,0,1,.44,3.09,10.32,10.32,0,0,1-.48,3.25,6.78,6.78,0,0,1-1.41,2.48,6.24,6.24,0,0,1-2.3,1.57,8.16,8.16,0,0,1-3.1.56,7.9,7.9,0,0,1-3.24-.62,6.35,6.35,0,0,1-2.28-1.66,6.8,6.8,0,0,1-1.34-2.49A10.64,10.64,0,0,1,291.1,46.2Zm2.49,0a8.86,8.86,0,0,0,.25,2.1,5.76,5.76,0,0,0,.83,1.89,4.19,4.19,0,0,0,1.48,1.35,4.47,4.47,0,0,0,2.22.51A4.39,4.39,0,0,0,302,50.56a6.8,6.8,0,0,0,1.21-4.36,8.85,8.85,0,0,0-.26-2.12,5.54,5.54,0,0,0-.83-1.87,4.43,4.43,0,0,0-1.5-1.35,4.51,4.51,0,0,0-2.23-.51,4.33,4.33,0,0,0-3.58,1.47A6.81,6.81,0,0,0,293.59,46.2Z"/><path class="cls-2" d="M317.56,42l3,8.34h.21L322.9,38.7h2.19l-2.94,15h-2.67l-2.88-8.28h-.09l-3,8.28h-2.67l-3.15-15H310l2.43,11.7h.18l2.91-8.4Z"/><path class="cls-2" d="M352.72,51.39h1.14l3.72-12.69H360l-4.17,13.47c-.22.7-.45,1.49-.68,2.38a11.17,11.17,0,0,1-1,2.51,6,6,0,0,1-1.71,2,4.58,4.58,0,0,1-2.82.81,4.12,4.12,0,0,1-.83-.09,8.19,8.19,0,0,1-.85-.23,5.51,5.51,0,0,1-.78-.31,2.09,2.09,0,0,1-.54-.36l.84-2.16a2.33,2.33,0,0,0,.49.3,4.3,4.3,0,0,0,.69.25l.74.18a3.1,3.1,0,0,0,.6.08q2.25,0,3.06-3.81h-2l-6.3-15h2.7Z"/><path class="cls-2" d="M363.1,46.2A8.32,8.32,0,0,1,365,40.45a6.86,6.86,0,0,1,5.4-2.11,7.86,7.86,0,0,1,3.25.61,6.42,6.42,0,0,1,2.27,1.67,6.78,6.78,0,0,1,1.33,2.49,10.63,10.63,0,0,1,.44,3.09,10.32,10.32,0,0,1-.48,3.25,6.78,6.78,0,0,1-1.41,2.48,6.24,6.24,0,0,1-2.3,1.57,8.16,8.16,0,0,1-3.1.56,7.9,7.9,0,0,1-3.24-.62,6.35,6.35,0,0,1-2.28-1.66,6.8,6.8,0,0,1-1.34-2.49A10.64,10.64,0,0,1,363.1,46.2Zm2.49,0a8.86,8.86,0,0,0,.25,2.1,6,6,0,0,0,.82,1.89,4.36,4.36,0,0,0,1.48,1.35,4.54,4.54,0,0,0,2.23.51A4.39,4.39,0,0,0,374,50.56a6.8,6.8,0,0,0,1.21-4.36,8.85,8.85,0,0,0-.26-2.12,5.75,5.75,0,0,0-.83-1.87,4.43,4.43,0,0,0-1.5-1.35,4.51,4.51,0,0,0-2.23-.51,4.37,4.37,0,0,0-3.59,1.47A6.87,6.87,0,0,0,365.59,46.2Z"/><path class="cls-2" d="M390.25,38.7h4.29V48.93a21.33,21.33,0,0,0,.18,2.82h2v2h-4l-.09-2.55h-.12a6.3,6.3,0,0,1-2.07,2.1,5.69,5.69,0,0,1-3.11.81,7.72,7.72,0,0,1-2.35-.32,3.36,3.36,0,0,1-1.6-1.09,5.25,5.25,0,0,1-.92-2.09,14.79,14.79,0,0,1-.3-3.25v-6.6h-2v-2h4.38v8.13a20.77,20.77,0,0,0,.1,2.2,5,5,0,0,0,.43,1.65,2.23,2.23,0,0,0,1,1,3.63,3.63,0,0,0,1.71.35,4,4,0,0,0,2.7-1,6.59,6.59,0,0,0,1.74-2.55V40.71h-1.92Z"/><path class="cls-2" d="M425.83,32.7h4.89V48.57c0,.18,0,.4,0,.67s0,.56.07.86.07.59.11.88.08.55.12.77h2v2h-4l-.3-2.31h-.12a5.35,5.35,0,0,1-2,1.9,5.83,5.83,0,0,1-3,.77,6.14,6.14,0,0,1-5-1.91q-1.6-1.9-1.6-5.92a9.61,9.61,0,0,1,.54-3.35,6.33,6.33,0,0,1,1.54-2.43,6.61,6.61,0,0,1,2.4-1.48,9.21,9.21,0,0,1,3.15-.51c.42,0,.79,0,1.12,0s.63,0,.91.09a6.13,6.13,0,0,1,.79.16l.83.23V34.71h-2.52ZM424,52.05a4.12,4.12,0,0,0,2.87-.95,5.05,5.05,0,0,0,1.44-2.83v-7a4.62,4.62,0,0,0-1.48-.66,9.07,9.07,0,0,0-2.17-.21,5.05,5.05,0,0,0-3.77,1.39,6.1,6.1,0,0,0-1.37,4.4,11.06,11.06,0,0,0,.22,2.29,5.21,5.21,0,0,0,.75,1.85,3.68,3.68,0,0,0,1.39,1.23A4.55,4.55,0,0,0,424,52.05Z"/><path class="cls-2" d="M435.1,46.2A8.32,8.32,0,0,1,437,40.45a6.86,6.86,0,0,1,5.4-2.11,7.86,7.86,0,0,1,3.25.61,6.42,6.42,0,0,1,2.27,1.67,6.78,6.78,0,0,1,1.33,2.49,10.63,10.63,0,0,1,.44,3.09,10.32,10.32,0,0,1-.48,3.25,6.78,6.78,0,0,1-1.41,2.48,6.24,6.24,0,0,1-2.3,1.57,8.16,8.16,0,0,1-3.1.56,7.9,7.9,0,0,1-3.24-.62,6.35,6.35,0,0,1-2.28-1.66,6.8,6.8,0,0,1-1.34-2.49A10.64,10.64,0,0,1,435.1,46.2Zm2.49,0a8.86,8.86,0,0,0,.25,2.1,6,6,0,0,0,.82,1.89,4.36,4.36,0,0,0,1.48,1.35,4.51,4.51,0,0,0,2.23.51A4.39,4.39,0,0,0,446,50.56a6.8,6.8,0,0,0,1.21-4.36,8.85,8.85,0,0,0-.26-2.12,5.56,5.56,0,0,0-.84-1.87,4.3,4.3,0,0,0-1.49-1.35,4.51,4.51,0,0,0-2.23-.51,4.37,4.37,0,0,0-3.59,1.47A6.87,6.87,0,0,0,437.59,46.2Z"/><path class="cls-2" d="M454.18,44c0-.18,0-.42,0-.71s0-.59,0-.9-.05-.61-.08-.91-.06-.56-.1-.78h-2V38.7h4l.27,2.43h.15a5.06,5.06,0,0,1,.79-1,6.27,6.27,0,0,1,1.16-.9,6.11,6.11,0,0,1,1.47-.64,6,6,0,0,1,1.71-.24,9,9,0,0,1,2.44.3,3.72,3.72,0,0,1,1.77,1.06,4.94,4.94,0,0,1,1.07,2.07,12.78,12.78,0,0,1,.36,3.32V53.7h-2.37V45.55a7,7,0,0,0-.81-3.74A3.22,3.22,0,0,0,461,40.56a3.78,3.78,0,0,0-1.51.31,5.18,5.18,0,0,0-1.33.82,5.71,5.71,0,0,0-1.05,1.19,4.8,4.8,0,0,0-.65,1.42v9.4h-2.31Z"/><path class="cls-2" d="M476.35,33.33a1.64,1.64,0,0,1,.54-1.29,1.92,1.92,0,0,1,1.32-.48,2.27,2.27,0,0,1,1.68.63,2.57,2.57,0,0,1,.63,1.89,5.7,5.7,0,0,1-.35,2.08,5.43,5.43,0,0,1-.84,1.49,4.46,4.46,0,0,1-1,.94,5,5,0,0,1-1,.5l-.9-1.23a5,5,0,0,0,1.45-1.08,2.37,2.37,0,0,0,.62-1.68,1.6,1.6,0,0,1-.36,0,1.81,1.81,0,0,1-1.25-.51A1.67,1.67,0,0,1,476.35,33.33Z"/><path class="cls-2" d="M488.32,38.7h3.57v-3l2.37-.66V38.7h8v2h-8v7.08A4.37,4.37,0,0,0,495.32,51a4.12,4.12,0,0,0,3,1,5.12,5.12,0,0,0,2.35-.51,12.63,12.63,0,0,0,1.81-1.11l.78,1.77a8.59,8.59,0,0,1-2.51,1.35,8.93,8.93,0,0,1-3,.51,7.34,7.34,0,0,1-2.27-.35,5,5,0,0,1-3.16-2.91,6.79,6.79,0,0,1-.48-2.68V40.71h-3.57Z"/><path class="cls-2" d="M539.26,51.81a7.6,7.6,0,0,1-1.28.9,9.35,9.35,0,0,1-1.6.72,11.82,11.82,0,0,1-1.82.46,11,11,0,0,1-1.9.17,8.47,8.47,0,0,1-3.18-.56,6.12,6.12,0,0,1-2.31-1.59,6.91,6.91,0,0,1-1.41-2.47,10.21,10.21,0,0,1-.48-3.24,10,10,0,0,1,.52-3.36,6.53,6.53,0,0,1,1.52-2.46,6.61,6.61,0,0,1,2.4-1.52,9,9,0,0,1,3.15-.52,9.57,9.57,0,0,1,2.49.33,4.89,4.89,0,0,1,2.17,1.24A5.94,5.94,0,0,1,539,42.43a11.76,11.76,0,0,1,.36,4.16H527.77a5.2,5.2,0,0,0,1.45,4A5.49,5.49,0,0,0,533.09,52a6.68,6.68,0,0,0,1.6-.2,13.32,13.32,0,0,0,1.51-.46,8,8,0,0,0,1.28-.6,6,6,0,0,0,.85-.6Zm-6.32-11.49a8.06,8.06,0,0,0-1.87.21,4.27,4.27,0,0,0-1.56.7,4,4,0,0,0-1.1,1.29,5.2,5.2,0,0,0-.55,2h9.3a4.62,4.62,0,0,0-1.28-3.08A4,4,0,0,0,532.94,40.32Z"/><path class="cls-2" d="M544.54,53.7v-2h5.21v-11h-5.21v-2h7.58v13h5.1v2Zm4.38-19.26a2,2,0,0,1,.54-1.4,1.75,1.75,0,0,1,1.37-.58,2,2,0,0,1,1.46.58,1.92,1.92,0,0,1,.59,1.4,1.73,1.73,0,0,1-.59,1.32,2.06,2.06,0,0,1-1.46.54,1.83,1.83,0,0,1-1.37-.54A1.76,1.76,0,0,1,548.92,34.44Z"/><path class="cls-2" d="M560.31,38.7h3.57v-3l2.37-.66V38.7h8v2h-8v7.08A4.38,4.38,0,0,0,567.32,51a4.12,4.12,0,0,0,3,1,5.12,5.12,0,0,0,2.35-.51,12.63,12.63,0,0,0,1.81-1.11l.78,1.77a8.59,8.59,0,0,1-2.51,1.35,9,9,0,0,1-3,.51,7.27,7.27,0,0,1-2.26-.35,5.21,5.21,0,0,1-1.88-1.06,5.1,5.1,0,0,1-1.28-1.85,6.61,6.61,0,0,1-.49-2.68V40.71h-3.57Z"/><path class="cls-2" d="M577.5,32.7h4.68v7.86h.15a6.67,6.67,0,0,1,2.17-1.64,7,7,0,0,1,3-.58,9.33,9.33,0,0,1,2.51.3,3.59,3.59,0,0,1,1.74,1,4.74,4.74,0,0,1,1,2.05,13.89,13.89,0,0,1,.33,3.32V53.7h-2.37V45.51a16.31,16.31,0,0,0-.14-2.25,3.94,3.94,0,0,0-.59-1.61,2.69,2.69,0,0,0-1.18-1,4.75,4.75,0,0,0-1.91-.33,4.59,4.59,0,0,0-1.59.28,5.3,5.3,0,0,0-1.42.78,4.86,4.86,0,0,0-1.1,1.2,4.52,4.52,0,0,0-.65,1.55V53.7h-2.3v-19H577.5Z"/><path class="cls-2" d="M611.25,51.81a7.5,7.5,0,0,1-1.27.9,9.46,9.46,0,0,1-1.61.72,11.7,11.7,0,0,1-1.81.46,11.12,11.12,0,0,1-1.91.17,8.47,8.47,0,0,1-3.18-.56,6.12,6.12,0,0,1-2.31-1.59,6.91,6.91,0,0,1-1.41-2.47,10.21,10.21,0,0,1-.48-3.24,10,10,0,0,1,.53-3.36,6.51,6.51,0,0,1,1.51-2.46,6.61,6.61,0,0,1,2.4-1.52,9,9,0,0,1,3.15-.52,9.57,9.57,0,0,1,2.49.33,4.92,4.92,0,0,1,2.18,1.24A5.93,5.93,0,0,1,611,42.43a11.76,11.76,0,0,1,.36,4.16H599.76a5.23,5.23,0,0,0,1.45,4A5.51,5.51,0,0,0,605.09,52a6.68,6.68,0,0,0,1.6-.2,13.32,13.32,0,0,0,1.51-.46,7.91,7.91,0,0,0,1.27-.6,5.62,5.62,0,0,0,.86-.6Zm-6.31-11.49a8.06,8.06,0,0,0-1.87.21,4.27,4.27,0,0,0-1.56.7,3.85,3.85,0,0,0-1.1,1.29,5.2,5.2,0,0,0-.56,2h9.3a4.62,4.62,0,0,0-1.27-3.08A4,4,0,0,0,604.94,40.32Z"/><path class="cls-2" d="M615.36,53.7v-2h4v-11h-4v-2H621l.48,1.95h.15a10.81,10.81,0,0,1,2.28-1.59,6.39,6.39,0,0,1,3-.66,3,3,0,0,1,1.64.39,2.59,2.59,0,0,1,1,1.14,5.91,5.91,0,0,1,.46,1.81,21.86,21.86,0,0,1,.12,2.42l-2.1,0a7.73,7.73,0,0,0-.37-2.8,1.36,1.36,0,0,0-1.37-.89,4.93,4.93,0,0,0-1.68.27,5.1,5.1,0,0,0-1.3.65,7.21,7.21,0,0,0-1,.78,4.65,4.65,0,0,0-.57.66v8.83h5.76v2Z"/><path class="cls-2" d="M638.37,52.05a1.84,1.84,0,0,1,2-2,2.06,2.06,0,0,1,1.5.52,2,2,0,0,1,.54,1.49,2,2,0,0,1-.54,1.44,2,2,0,0,1-1.5.57,1.89,1.89,0,0,1-1.44-.57A2,2,0,0,1,638.37,52.05Z"/></svg>